<?xml version="1.0" encoding="utf-8"?>
<svg id="" width="1000" height="1000" viewBox="0 0 1000 1000" xmlns="http://www.w3.org/2000/svg"
    xmlns:xlink="http://www.w3.org/1999/xlink">

    <style>
        #background {
            fill: none;
            fill: #ffffff;
        }
        .std-fill {
            /* stroke: black; */
            fill: #d18100;
        }
        .twist {
            fill: #ffc362;
        }
    </style>

    <mask id="arrow-mask">
        <rect fill="white" width="100%" height="100%" />
        <path id="single-arrow-mask" fill="black" d="M733 503 l -200 -100 l0 40 l200 100 z" />
        <use href="#single-arrow-mask" transform="rotate(180, 500, 500)" />
    </mask>

    <!-- <rect id="background" width="100%" height="100%" /> -->
    <a href="https://github.com/TendrilApps">
        <path id="pattern-seed" class="twist"
            d="M730 500 c0 -75 0 -360 -430 -430 L210 130 C 580 180 690 290 730 500 z" />
        <use xlink:href="#pattern-seed" transform="rotate( 60, 500, 500)" />
        <use xlink:href="#pattern-seed" transform="rotate(120, 500, 500)" />
        <use xlink:href="#pattern-seed" transform="rotate(180, 500, 500)" />
        <use xlink:href="#pattern-seed" transform="rotate(240, 500, 500)" />
        <use xlink:href="#pattern-seed" transform="rotate(300, 500, 500)" />

        <path id="outer-ring" class="std-fill"
            d="M 500, 500 m 0, -490 a 490, 490, 0, 1, 0, 1, 0 Z m 1 70 a 420, 420, 0, 1, 1, -1, 0 Z" />
        <g mask="url(#arrow-mask)" >
            <path id="inner-ring" class="std-fill"
                d="M 500, 500 m 0, -230 a 230, 230, 0, 1, 0, 1, 0 Z m 1 50 a 180, 180, 0, 1, 1, -1, 0 Z" />
            <path id="arrow-head" class="std-fill" d="M730 502 l-150 -75 l60 -60 z" />
            <use xlink:href="#arrow-head" transform="rotate(180, 500, 500)" />
        </g>
    </a>
</svg>
