<?xml version="1.0" encoding="utf-8"?>
<svg id="" width="1024" height="1024" viewBox="0 0 1024 1024" xmlns="http://www.w3.org/2000/svg"
    xmlns:xlink="http://www.w3.org/1999/xlink">
    <defs>
        <linearGradient id="T-gradient" gradientUnits="userSpaceOnUse" x1="250" y1="30" x2="250" y2="375"
            spreadMethod="pad"
            gradientTransform="matrix(0.755268, -0.655417, 0.456996, 0.526619, -67.091133, 289.307427)">
            <stop offset="0" stop-color="#10aea1" />
            <stop offset="1" stop-color="#025b51" />
        </linearGradient>
    </defs>

    <style>
        #background {
            fill: none;
            /* fill: #ffffff; */
        }

        #main {
            fill: url('#T-gradient');
            stroke: #025b51;
            stroke-width: 3;
            stroke-linejoin: round;
        }
    </style>

    <rect id="background" width="100%" height="100%" rx="25" />
    <use width="1024" height="1024" xlink:href="#main" />

    <symbol id="main" viewBox="0 0 500 500">
        <path
            d="M 200 284 V135 a10 10 0 0 0 -10 -10 H60 a10 10 0 0 1 -10 -10 V60 a 10 10 0 0 1 10 -10 H440 a 10 10 0 0 1 10 10 V115 a 10 10 0 0 1 -10 10 H310 a 10 10 0 0 0 -10 10 L300 281.461 L 300 285.5 C 300 292.134 303.538 300.467 307.618 306.719 C 311.422 312.548 318.987 319.416 328.919 323.274 C 339.602 327.424 350.832 330.235 362.608 331.708 C 379.645 333.839 395.714 339.888 410.815 349.853 C 420.43 356.198 428.891 364.017 436.196 373.311 C 445.485 385.13 459.201 391.282 477.342 391.769 C 484.65 391.965 477.344 392.222 455.423 392.538 C 447.14 392.657 439.449 389.581 432.35 383.309 C 422.051 374.21 411.268 365.692 400 357.753 C 390.442 351.018 379.049 348.385 365.823 349.853 C 362.17 350.258 364.734 352.892 373.514 357.753 C 386.136 364.741 393.571 377.105 395.818 394.846 C 397.843 410.835 413.437 420.146 433.119 425.61 C 441.627 427.972 426.586 424.616 407.354 419.457 C 399.473 417.343 393.754 411.769 390.434 401.768 C 386.749 390.668 382.379 379.326 373.528 371.248 C 369.486 367.559 360.012 364.744 348.175 356.863 C 342.087 352.809 317.942 348.969 307.758 340.496 C 306.142 339.152 309.432 346.403 311.963 351.88 C 313.519 355.247 314.856 356.644 316.445 362.617 C 317.594 366.937 318.437 368.671 319.961 373.994 C 320.502 375.882 320.381 375.68 322.31 376.636 C 328.611 379.758 335.733 391.626 345.435 391.377 C 356.848 391.084 367.111 401.104 375.694 412.421 C 377.846 415.259 375.036 410.989 366.731 404.562 C 360.807 399.978 354.04 396.358 344.75 396.354 C 334.816 396.35 330.214 392.561 321.255 384.026 C 320.01 382.84 324.464 401.745 324.88 405.998 C 326.11 418.559 326.989 422.363 342.229 429.436 C 357.217 436.392 362.835 432.938 374.496 448.298 C 378.242 453.233 376.212 452.431 377.825 452.528 C 381.735 452.762 379.824 453.333 385.814 455.389 C 390.702 457.067 393.263 456.152 400 454.775 C 402.706 454.222 399.941 455.999 391.544 457.753 C 386.857 458.732 387.718 458.553 384.865 458.219 C 382.197 457.906 383.818 457.753 379.762 457.753 C 379.584 457.753 381.146 470.893 381.265 472.971 C 381.43 475.858 381.387 475.851 382.179 478.825 C 383.32 483.109 383.832 487.206 385.524 491.418 C 386.759 494.493 385.431 491.457 381.54 482.311 C 379.297 477.04 377.875 471.49 377.272 465.664 C 376.304 456.311 370.807 448.125 359.77 443.182 C 346.997 437.462 343.082 442.044 327.051 435.251 C 321.292 432.81 311.34 423.589 308.592 413.182 C 307.744 409.97 307.987 410.891 305.823 412.966 C 300.417 418.149 304.9 433.21 307.719 442.441 C 310.69 452.17 309.129 462.039 306.269 472.797 C 304.979 477.651 306.752 472.487 304.531 457.753 C 303.74 452.506 304.994 448.954 301.444 441.995 C 298.155 435.547 293.629 423.524 293.92 416.894 C 294.604 401.3 302.591 399.456 302.676 397.611 C 302.85 393.845 301.596 389.916 300 385.399 C 295.876 373.724 295.375 372.946 289.047 365.776 C 283.056 358.988 276.288 351.4 270.123 347.464 C 265.709 344.646 262.003 340.944 259.007 336.36 C 258.635 335.792 257.582 338.265 256.94 339.555 C 253.965 345.531 251.984 345.96 246.859 353.514 C 242.911 359.332 238.537 373.04 237.358 380.456 C 237.278 380.958 236.559 382.195 237.209 382.534 C 239.583 383.772 242.419 387.641 244.528 389.941 C 246.321 391.896 246.762 392.953 249.513 395.803 C 251.53 397.893 253.869 403.44 254.67 407.477 C 255.137 409.829 255.273 411.192 256.421 417.11 C 256.762 418.867 259.431 431.189 258.501 427.072 C 257.818 424.049 256.082 423.248 255.127 420.004 C 253.821 415.566 254.189 416.706 252.991 412.739 C 252.684 411.724 252.193 408.931 250.941 406.217 C 249.487 403.064 245.4 399.41 242.99 397.103 C 240.945 395.146 237.732 393.493 236.762 392.195 C 234.562 389.252 242.428 408.108 241.904 415.467 C 241.204 425.296 242.09 417.911 248.924 431.387 C 251.601 436.666 251.633 439.422 259.299 440.817 C 266.606 442.147 271.431 447.792 273.776 457.753 C 274.395 460.384 273.079 458.423 269.828 451.872 C 268.616 449.43 265.708 446.527 262.357 445.985 C 255.508 444.877 256.437 444.553 249.774 442.502 C 243.958 440.712 244.625 439.51 240.399 434.026 C 239.178 432.441 238.607 432.024 237.017 430.798 C 235.222 429.414 235.238 428.7 234.155 429.257 C 232.186 430.269 231.913 429.743 228.957 431.341 C 225.378 433.275 220.958 434.17 217.253 435.697 C 215.517 436.413 213.7 438.021 211.558 439.573 C 208.817 441.559 207.852 441.092 205.145 444.115 C 203.533 445.914 193.354 456.943 189.832 460.08 C 187.405 462.243 200.9 444.86 206.893 437.181 C 210.265 432.86 213.63 432.014 220.34 428.542 C 224.353 426.465 223.544 427.666 228.308 424.809 C 231.302 423.013 230.236 423.687 230.06 421.589 C 229.862 419.227 227.758 410.406 223.858 403.859 C 223.328 402.969 220.81 407.085 219.882 408.127 C 214.901 413.719 213.446 413.939 211.643 416.449 C 210.351 418.248 203.133 424.012 199.541 425.013 C 196.64 425.822 190.585 426.869 181.138 429.023 C 177.382 429.879 168.749 433.298 165.857 437.921 C 163.15 442.249 161.044 446.899 159.54 451.872 C 158.726 454.565 158.989 451.933 160.33 443.975 C 161.535 436.822 165.396 430.68 171.911 425.55 C 175.21 422.952 176.584 420.89 181.562 420.031 C 189.076 418.735 192.309 417.427 196.563 408.952 C 201.004 400.105 202.261 401.221 206.644 392.345 C 210.791 383.948 216.199 377.406 216.543 366.1 C 216.796 357.788 216.308 360.296 214.053 353.384 C 213.244 350.905 211.751 346.959 210.49 347.519 C 204.19 350.315 200.741 353.239 195.271 356.687 C 193.559 359.522 193.124 358.489 191.861 361.293 C 191.343 362.444 187.583 368.635 187.286 369.368 C 186.471 371.382 186.379 372.72 186.217 375.311 C 185.935 379.811 185.858 378.371 185.883 381.59 C 185.919 386.13 186.037 387.322 187.533 390.382 C 189.433 394.268 189.449 403.142 188.972 401.735 C 187.353 396.964 187.16 394.909 185.01 391.726 C 182.91 388.617 182.224 385.248 181.679 382.073 C 181.359 380.207 181.362 371.338 180.807 371.798 C 177.189 374.8 175.357 375.946 172.367 377.322 C 165.508 380.478 160.755 386.981 155.732 392.105 C 153.238 394.649 147.187 400.478 144.552 404.423 C 141.612 408.825 139.381 414.922 136.663 419.139 C 133.15 424.589 130.748 430.383 129.456 436.521 C 127.952 443.668 127.316 450.839 127.548 458.035 C 127.706 462.928 127.494 464.59 126.912 463.019 C 125.485 459.166 124.517 455.228 124.01 451.204 C 123.461 446.849 123.229 442.489 123.314 438.124 C 123.415 432.937 124.481 428.067 126.514 423.515 C 127.546 421.204 129.015 416.478 129.004 414.058 C 129.002 413.636 128.438 413.129 128.004 413.158 C 126.375 413.266 123.614 413.443 121.288 413.698 C 115.854 414.293 114.329 415.27 110.636 417.306 C 108.449 418.512 102.351 423.291 99.576 424.271 C 94.942 425.907 90.87 425.872 86.035 427.446 C 79.923 429.436 76.89 432.364 71.554 434.924 C 66.519 437.34 64.664 437.85 65.989 436.455 C 72.571 429.526 80.224 425.073 88.947 423.097 C 95.719 421.563 101.331 418.502 105.783 413.914 C 110.019 409.549 114.796 407.184 120.114 406.818 C 123.661 406.574 129.105 405.362 131.641 405.671 C 132.725 405.803 132.892 403.61 133.161 402.976 C 134.543 399.717 132.763 403.236 136.284 396.801 C 138.905 392.011 139.832 391.01 142.735 386.559 C 146.538 380.729 145.192 382.915 148.36 378.978 C 150.728 376.035 153.565 372.445 154.093 371.9 C 155.931 370.001 156.771 369.352 158.238 367.917 C 160.337 365.864 162.588 365.027 161.531 365.224 C 157.096 366.049 152.801 368.171 148.467 369.177 C 139.736 371.204 137.393 368.911 128.467 368.465 C 123.724 368.228 113.764 368.753 109.367 368.647 C 106.9 368.588 104.937 368.533 102.717 368.684 C 101.104 368.794 97.681 368.219 96.952 368.641 C 91.706 371.677 88.403 376.456 86.077 379.338 C 82.875 383.305 77.37 390.223 76.56 400.15 C 76.331 402.961 73.251 410.416 72.035 412.619 C 70.929 414.623 69.449 416.176 66.647 419.144 C 64.576 421.338 67.417 416.386 68.845 412.879 C 70.091 409.819 71.495 408.237 72.265 404.472 C 73.208 399.859 72.764 396.769 73.689 393.285 C 74.886 388.774 75.282 386.324 77.294 382.533 C 80.935 375.673 82.977 371.581 85.702 368.444 C 86.949 367.009 85.141 367.782 82.969 368.129 C 76.829 369.109 66.555 375.558 60.933 377.981 C 50.931 382.291 50.558 383.824 42.934 388.525 C 36.994 392.188 24.432 407.797 25.463 405.648 C 32.118 391.783 49.19 376.053 58.731 369.389 C 76.664 356.864 77.522 352.906 89.36 351.762 C 111.166 349.654 130.018 357.22 168.015 331.409 C 178.259 324.45 183.792 321.755 192.098 309.502 C 199.95 297.92 200 289.555 200 287.106 L 200 282.799" />
    </symbol>
</svg>