<?xml version="1.0" encoding="utf-8"?>
<svg id="" width="1000" height="1000" viewBox="0 0 1000 1000" xmlns="http://www.w3.org/2000/svg"
    xmlns:xlink="http://www.w3.org/1999/xlink">

    <style>
        #background {
            fill: none;
            fill: #ffffff;
        }
        .std-fill {
            /* stroke: black; */
            fill: #d18100;
        }
        .twist {
            fill: #ffc362;
        }
    </style>

    <mask id="arrow-mask">
        <rect fill="white" width="100%" height="100%" />
        <path id="single-arrow-mask" fill="black" d="M703 503 l -150 -75 l0 30 l150 75 z" />
        <use href="#single-arrow-mask" transform="rotate(180, 500, 500)" />
    </mask>

    <!-- <rect id="background" width="100%" height="100%" /> -->
    <a mask="url(#arrow-mask)" href="https://github.com/TendrilApps">
        <path id="pattern-seed" class="twist"
            d="M700 500 c0 -40 -10 -350 -400 -360 l-30 50 c 200 0 400 100 430 310" />
        <use xlink:href="#pattern-seed" transform="rotate( 60, 500, 500)" />
        <use xlink:href="#pattern-seed" transform="rotate(120, 500, 500)" />
        <use xlink:href="#pattern-seed" transform="rotate(180, 500, 500)" />
        <use xlink:href="#pattern-seed" transform="rotate(240, 500, 500)" />
        <use xlink:href="#pattern-seed" transform="rotate(300, 500, 500)" />

        <path id="outer-ring" class="std-fill"
            d="M 500, 500 m 0, -420 a 420, 420, 0, 1, 0, 1, 0 Z m 1 60 a 360, 360, 0, 1, 1, -1, 0 Z" />
        <path id="inner-ring" class="std-fill"
            d="M 500, 500 m 0, -200 a 200, 200, 0, 1, 0, 1, 0 Z m 1 40 a 160, 160, 0, 1, 1, -1, 0 Z" />
        <path id="arrow-head" class="std-fill" d="M700 502 l-130 -65 l60 -60 z" />
        <use xlink:href="#arrow-head" transform="rotate(180, 500, 500)" />
    </a>
</svg>
